<?xml version="1.0" encoding="UTF-8" standalone="no"?>
<svg
   id="tb"
   width="15.38888888888889in"
   height="15.38888888888889in"
   viewBox="0,0,1108,1108"
   version="1.1"
   sodipodi:docname="triBahtinovMask.svg"
   inkscape:version="1.1.2 (b8e25be8, 2022-02-05)"
   xmlns:inkscape="http://www.inkscape.org/namespaces/inkscape"
   xmlns:sodipodi="http://sodipodi.sourceforge.net/DTD/sodipodi-0.dtd"
   xmlns="http://www.w3.org/2000/svg"
   xmlns:svg="http://www.w3.org/2000/svg">
  <defs
     id="defs150" />
  <sodipodi:namedview
     id="namedview148"
     pagecolor="#ffffff"
     bordercolor="#666666"
     borderopacity="1.0"
     inkscape:pageshadow="2"
     inkscape:pageopacity="0.0"
     inkscape:pagecheckerboard="0"
     inkscape:document-units="in"
     showgrid="false"
     inkscape:zoom="0.48668771"
     inkscape:cx="738.66669"
     inkscape:cy="763.32316"
     inkscape:window-width="1312"
     inkscape:window-height="969"
     inkscape:window-x="1042"
     inkscape:window-y="125"
     inkscape:window-maximized="0"
     inkscape:current-layer="tb" />
  <g
     fill="none"
     stroke="blue"
     stroke-width="0.5"
     id="g23">
    <path
       d="M-138.5719038012207,203.19685039370071L-159.9267874357432,240.14173228346453L-191.25093298017865,240.14173228346453L-195.04023938291436,237.0794040918007L-199.14813992787674,233.63937422090197L-203.19537802022577,230.12817553330015L-207.18072083203202,226.54687757412918L-211.1029543892681,222.89657124144026L-214.96088394159702,219.17836845390363L-218.75333432630444,215.39340181210736L-222.47915032626494,211.54282425355643L-226.13719702183215,207.62780870147654L-229.72636013654628,203.6495477075304L-230.12066953919086,203.19685039370074Z"
       id="path9" />
    <path
       d="M-117.2170201666983,166.25196850393695L-258.07458160323716,166.25196850393695L-258.7558554855386,165.20516358460145L-261.5996733758524,160.66408968003776L-264.3638054714829,156.07407593736954L-267.0474097910172,151.43652051924732L-269.6496688825827,146.7528360699764L-272.16979007285164,142.02444928521192L-274.6070057084964,137.25280047737343L-276.9605733900246,132.4393431369118L-278.4249365308323,129.30708661417316L-123.16044840651774,129.30708661417316L-122.00694284981772,130.40533737083877L-119.71247365208087,132.51479076111016L-117.38153887518882,134.58387886241613L-115.01484854445489,136.6119714104773L-112.61312357668047,138.59845062865693L-110.17709556055675,140.54271141614177L-107.7075065338158,142.44416153226143L-105.20510875719864,144.30222177689078L-104.72940183574454,144.6478430861937Z"
       id="path11" />
    <path
       d="M-292.77169560393395,92.36220472440938L-294.26880693577345,87.48261591690289L-295.7507705403327,82.3335930703096L-297.14264559518335,77.15949061368369L-298.4440081217002,71.96188462875607L-299.6544617122512,66.74235835666009L-300.7736376509467,61.50250171566095L-301.80119502595403,56.24391081685109L-301.9477866871443,55.417322834645596L-169.76093473919804,55.4173228346456L-168.9473340324319,57.8622885971065L-167.9117663571559,60.802013430320336L-166.82505113124967,63.72321738124097L-165.68751937869834,66.62501062284662L-164.4995176026932,69.50650924080557L-163.2614076800837,72.3668355027251L-161.97356675114605,75.20511812551723L-160.63638710470283,78.02049254079998L-159.2502760586279,80.81210115825333L-157.81565583577344,83.57909362684947L-156.33296343535685,86.32062709387802L-154.8026504998464,89.03586646168706L-153.22518317738675,91.72398464206208L-152.8355252431651,92.3622047244094Z"
       id="path13" />
    <path
       d="M-306.4365628033719,18.47244094488181L-306.69172602075207,13.693940757861226L-306.88400760521864,8.339346450889607L-306.9828093481165,2.982211898203986L-306.98810115347777,-2.375831065115164L-306.8998814093671,-7.733150327276687L-306.7181769883733,-13.088113996935814L-306.44304323942305,-18.439090900284064L-306.4407442736603,-18.472440944881974L-177.61962136903924,-18.472440944881974L-177.8757826108257,-15.857240584264503L-178.12543827522373,-12.750464996243268L-178.32083520558328,-9.63980549306765L-178.46191388210647,-6.526209611755951L-178.5486313308618,-3.410625783775699L-178.58096113687432,-0.29400304614223505L-178.55889345217196,2.822709247667155L-178.4824349987852,5.938561716895508L-178.35160906669964,9.052605242696755L-178.16645550676157,12.16389125724652L-177.92703071853887,15.27147203268507L-177.6334076331415,18.374400969804388L-177.62240085961542,18.47244094488181Z"
       id="path15" />
    <path
       d="M-301.9520837061695,-55.41732283464575L-301.91170336353923,-55.64766118350476L-300.89453514851607,-60.90827153044402L-299.7857115432558,-66.15032862784342L-298.5855703061701,-71.37223569433017L-297.29447701190577,-76.57240208642605L-295.91282493998733,-81.7492437830729L-294.44103495502026,-86.90118386814069L-292.87955537849155,-92.0266530107716L-292.770894290821,-92.36220472440954L-152.83979527426112,-92.36220472440954L-152.92233765158116,-92.22800423698197L-154.50864745370416,-89.54509467518542L-156.04789242505387,-86.83490881010803L-157.53960369670105,-84.09827219061843L-158.98332687894177,-81.3360184227413L-160.37862219970913,-78.5489889157329L-161.72506463853185,-75.73803262577964L-163.02224405599978,-72.90400579739776L-164.26976531869633,-70.04777170261303L-165.46724841955984,-67.17020037799968L-166.61432859363757,-64.27216835965886L-167.7106564291964,-61.35455841621721L-168.7558979741573,-58.41825927992703L-169.74973483782017,-55.4641653759498L-169.76458906321793,-55.41732283464576Z"
       id="path17" />
    <path
       d="M-278.4239007911512,-129.30708661417333L-277.2216370080638,-131.89201187955686L-274.8775818128413,-136.71010876958806L-272.4497962433997,-141.48656243614747L-269.93901982674186,-146.21991792517773L-267.3460173696869,-150.90873341074382L-264.671578725902,-155.5515806342273L-261.9165185553061,-160.14704533938757L-259.08167607591594,-164.6937277031582L-258.07192927609395,-166.25196850393712L-117.2170201666984,-166.25196850393712L-104.7294018357445,-144.64784308619372L-107.2379039883933,-142.79803243230316L-109.71374043665033,-140.90472411441812L-112.1561570167495,-138.9684948525931L-114.56440974494028,-136.98993444101797L-116.9377650441124,-134.9696455683608L-119.2754999672505,-132.90824363418318L-121.57690241765087,-130.80635656148354L-123.16202155640663,-129.30708661417333Z"
       id="path19" />
    <path
       d="M-230.1268524330378,-203.1968503937009L-226.54687757413288,-207.180720832028L-222.89657124144404,-211.1029543892641L-219.17836845390744,-214.9608839415931L-215.39340181211125,-218.75333432630057L-211.5428242535604,-222.47915032626116L-207.62780870148055,-226.13719702182846L-203.64954770753448,-229.72636013654267L-199.60925308855911,-233.24554637655015L-195.50815555743483,-236.6936837636309L-191.34750434819773,-240.06972196173407L-191.25552273524792,-240.14173228346468L-159.92678743574353,-240.14173228346473L-138.57190380122097,-203.1968503937009Z"
       id="path21" />
  </g>
  <g
     fill="none"
     stroke="blue"
     stroke-width="0.5"
     id="g37">
    <path
       d="M211.45913115316435,-329.3570243038846L235.5792078036945,-371.1248608379713L281.57930825401075,-379.23591966266173L285.84681391791423,-376.0504381770396L292.3662631516087,-371.0044490985661L298.7966547893315,-365.8454484708963L305.1360300714974,-360.57500777559784L311.3824579629843,-355.1947324399624L317.53403574134614,-349.7062613479771L319.029312005852,-348.3245495079026Z"
       id="path25" />
    <path
       d="M350.71534190452536,-316.39683524673205L352.34880916320117,-314.5991890667238L357.78565764535807,-308.4019394612246L363.11352115024874,-302.1107476374087L368.3307767590374,-295.7275299532499L373.4358352451249,-289.2542307986905L377.70573906135735,-283.64115424167665L228.23686205205254,-257.285758448741L225.30962563056627,-259.86880014695276L220.73997396273722,-263.76141603072443L216.103082760483,-267.5736876320589L211.40036446578236,-271.3044536960962L206.6332515721841,-274.95257779535234L201.80319618845573,-278.51694867588657L196.9116695962569,-281.99648059579994L191.96016180197284,-285.3901136559625L188.3645343676574,-287.770007538175Z"
       id="path27" />
    <path
       d="M400.6546995862941,-250.17285891759465L401.62541490547017,-248.63499186996012L405.90352434210894,-241.58779357993478L410.05799163315737,-234.4670053076715L414.0875512876333,-227.27479611425863L417.99097586263093,-220.013356816289L420.0213536128539,-216.0729063046815L285.16098303269723,-192.2933843430578L284.8913810140576,-192.69956335058438L281.4849195769453,-197.64225444566114L277.99271510652414,-202.52474179543023L274.4158313621058,-207.3455381469472L270.7553578971286,-212.1031750389433L267.01240972726987,-216.79620324913293L263.188126990801,-221.42319323566088L259.8322935213395,-225.3420692400598Z"
       id="path29" />
    <path
       d="M436.12750357072986,-181.3980388537497L438.6988356481025,-175.11614626060424L441.6882178488187,-167.43312484004093L444.54305753964815,-159.6991016676902L447.2624851087658,-151.91643260193158L449.1551272142695,-146.1803441527794L320.97349042348196,-123.57846315519072L320.9376033227388,-123.67406949340335L318.7303128447048,-129.2563668277868L316.4259340257685,-134.7992914207L314.0251688020411,-140.3011548436164L311.5287484698664,-145.76028117563956L308.9374334630611,-151.17500751400513L306.2520131212788,-156.54368448061672L305.31773569097805,-158.33274743633794Z"
       id="path31" />
    <path
       d="M459.25127896408384,-110.44575186375678L460.69192566247784,-104.33255824316848L462.4426142618894,-96.27648516016559L464.0524383612145,-88.19108532713165L465.5209075924379,-80.07882163518086L466.4785741716684,-74.20530276255707L339.9908576738801,-51.90210561579375L339.6376315740814,-54.24481459412843L338.639200566309,-60.1640468337523L337.53761677757257,-66.06495252188842L336.33321576096534,-71.94573418550078L335.02636438870434,-77.80460048152628L333.6174607403772,-83.63976674253502L332.460618460461,-88.08913751512094Z"
       id="path33" />
    <path
       d="M470.85830385505477,-37.46275103010596L471.34125151820007,-30.979956381877116L471.8101387527871,-22.749198892311867L471.997482057831,-18.458331756518582L363.01890560886324,-18.447755535937297Z"
       id="path35" />
  </g>
  <g
     fill="none"
     stroke="blue"
     stroke-width="0.5"
     id="g51">
    <path
       d="M319.02815033189694,348.3243446734416L314.59918906672374,352.34880916320117L308.4019394612245,357.7856576453581L302.1107476374086,363.1135211502488L295.72752995324987,368.33077675903746L289.25423079869046,373.43583524512496L282.69282200336113,378.42714155824257L281.588098047912,379.2374695404813L235.5792078036942,371.12486083797126L211.45913115316435,329.35702430388466Z"
       id="path39" />
    <path
       d="M377.6978872639788,283.6397697579518L376.05043817703955,285.8468139179143L371.00444909856606,292.36626315160873L365.84544847089626,298.79665478933157L360.5750077755978,305.13603007149743L355.19473243996237,311.3824579629844L350.7201252828145,316.3976786853833L188.3630541012959,287.7697465272768L192.6995633505843,284.89138101405763L197.64225444566105,281.4849195769453L202.52474179543015,277.99271510652426L207.34553814694715,274.4158313621058L212.10317503894322,270.75535789712865L216.79620324913284,267.01240972727L221.4231932356608,263.18812699080104L225.98273557255456,259.2836746012901L228.2353736571667,257.2854960045648Z"
       id="path41" />
    <path
       d="M420.0385276913472,216.0759345580887L419.9741653691306,216.20368521990628L416.13692668185803,223.50031617862223L412.1729286555092,230.72886677593397L408.08337876228313,237.887135125305L403.8695227186936,244.97294074885255L400.6531954760579,250.17259370237804L259.83911066525843,225.34327128646402L259.8688001469527,225.30962563056636L263.7614160307244,220.73997396273734L267.57368763205886,216.10308276048306L271.3044536960961,211.40036446578245L274.9525777953522,206.63325157218418L278.51694867588657,201.80319618845581L281.9964805957999,196.91166959625698L285.16165097937704,192.29350212007915Z"
       id="path43" />
    <path
       d="M449.1571984532366,146.1807093680928L448.62529432336714,147.84342519516525L445.9767429724901,155.65049889998969L443.19234278542996,163.41015995502892L440.2729419174567,171.1200446923561L437.2194296463557,178.7778046063929L436.12166913591227,181.39701008547416L305.3162979044393,158.33249391577866L306.65691790445743,155.74901409942115L309.3284076668037,150.37339160211323L311.9056729996431,144.95196391302355L314.3879288429888,139.48638245154478L316.7744190776646,133.97831208673634L319.06441675562667,128.42943063018922L320.96835709204123,123.57755801035682Z"
       id="path45" />
    <path
       d="M466.48142583216213,74.20580558724194L466.22977962937284,75.84276937792205L464.83513173918794,83.96804976405004L463.2988905649163,92.06775266880311L461.62152406050143,100.13941084421293L459.8035431680297,108.18056558500736L459.2497603702154,110.44548409468506L332.4658482256644,88.09005966382907L333.833225900089,82.77437995384165L335.2269936043755,76.93557987417013L336.5186479189932,71.07334447157724L337.7077953935255,65.18945943975537L338.79407380213206,59.28571706708368L339.7771522538866,53.363915690679704L339.99361201842095,51.90259128105047Z"
       id="path47" />
    <path
       d="M363.01890560886335,18.4477555359373L471.997482057831,18.458331756518582L471.6034522471735,26.693012357434824L471.0657674564362,34.91956200820597L470.85496216174823,37.46216179941477Z"
       id="path49" />
  </g>
  <g
     fill="none"
     stroke="blue"
     stroke-width="0.5"
     id="g67">
    <path
       d="M-106.68768250932054,-221.60521413948098L-128.0054469484104,-258.5715268067199L-112.34337417619278,-285.6990326000418L-107.7966669661187,-287.44950411170225L-102.76356343566191,-289.2870354044103L-97.69915712828963,-291.03644706374774L-92.60499071122308,-292.69720620197614L-87.4826159169012,-294.26880693577397L-82.33359307030791,-295.7507705403332L-77.15949061368198,-297.14264559518375L-71.96188462875436,-298.4440081217006L-66.74235835665839,-299.6544617122516L-61.50250171565922,-300.773637650947L-60.91329964033508,-300.8887709536741Z"
       id="path53" />
    <path
       d="M-85.36991807023065,-184.63890147224205L-14.941137351961139,-306.6251279914121L-13.693940757859473,-306.6917260207521L-8.339346450887854,-306.8840076052187L-2.982211898202232,-306.9828093481166L2.3758310651169174,-306.9881011534777L7.73315032727844,-306.8998814093671L13.088113996937565,-306.7181769883732L18.439090900285816,-306.443043239423L23.784451077922352,-306.0745639709216L27.22924636818801,-305.7766113898584L-50.40299769396986,-171.31362036861364L-51.93086352732155,-170.86378063143653L-54.90493835026424,-169.93143871313114L-57.862288597109355,-168.94733403243092L-60.80201343032322,-167.91176635715485L-63.72321738124388,-166.82505113124859L-66.62501062284953,-165.68751937869717L-69.50650924080851,-164.49951760269198L-72.36683550272805,-163.26140768008239L-72.90400579739679,-163.02224405600023Z"
       id="path55" />
    <path
       d="M66.39783216108917,-299.7288282642561L71.37223569433188,-298.5855703061697L76.57240208642774,-297.2944770119053L81.74924378307458,-295.9128249399868L86.90118386814238,-294.44103495501975L92.02665301077327,-292.87955537849103L97.12408994341487,-291.228861852206L102.19194193739754,-289.48945719340355L102.98108395904565,-289.20311530487464L36.887657985072636,-174.72594347166088L34.36345517001224,-175.2438274722951L31.29979494667502,-175.81686197477492L28.226600502589132,-176.3363409579211L25.144807962552935,-176.80210618340297L22.055356070428115,-177.21401577462092L18.95918590318921,-177.5719442599232L15.857240584262438,-177.87578261082587L12.75046499624116,-178.1254382752239L9.639805493065502,-178.3208352055834L6.52620961175376,-178.46191388210656L3.410625783773468,-178.54863133086184L0.2940030461399639,-178.58096113687432L-2.822709247669466,-178.55889345217193L-3.570253019294815,-178.54054982352395Z"
       id="path57" />
    <path
       d="M137.22067827351012,-274.61806850854595L141.48656243614903,-272.44979624339885L146.21991792517926,-269.93901982674106L150.90873341074536,-267.346017369686L155.55158063422877,-264.6715787259011L160.14704533938905,-261.9165185553052L164.69372770315968,-259.08167607591497L169.19024276204794,-256.16791480821155L169.21797526500592,-256.14924882316L104.80741381269515,-144.58688384372024L102.67066448530592,-146.11632616688223L100.10494573442114,-147.88592210846022L97.50873404732731,-149.6104705655609L94.88282025525433,-151.2894462240181L92.22800423698108,-152.9223376515817L89.5450946751845,-154.5086474537047L86.83490881010705,-156.0478924250544L84.09827219061741,-157.53960369670156L81.33601842274024,-158.98332687894234L78.54898891573178,-160.37862219970967L75.73803262577847,-161.7250646385324L72.90400579739655,-163.02224405600032L72.81359730163223,-163.06173189805077Z"
       id="path59" />
    <path
       d="M198.96885123761123,-233.7895137978649L199.14813992787393,-233.6393742209044L203.19537802022296,-230.12817553330262L207.18072083202924,-226.5468775741317L211.10295438926542,-222.8965712414428L214.96088394159435,-219.17836845390622L218.7533343263018,-215.39340181211003L222.47915032626238,-211.54282425355916L226.13719702182965,-207.62780870147924L226.37346278628797,-207.36592958233427L156.4079132780083,-86.18204305451816L156.33296343535537,-86.32062709388067L154.80265049984487,-89.03586646168974L153.22518317738513,-91.72398464206475L151.6010419798039,-94.38416280816762L149.93072163624336,-97.0155906439592L148.21473094246093,-99.6174665910295L146.45359260584505,-102.1889980927601L144.64784308619366,-104.7294018357446L142.79803243230305,-107.23790398839344L140.90472411441797,-109.71374043665051L138.96849485259295,-112.1561570167497L136.98993444101777,-114.56440974494049L134.96964556836056,-116.93776504411262L132.90824363418292,-119.27549996725075L132.8751039161356,-119.31178537444977Z"
       id="path61" />
    <path
       d="M251.1951722928045,-176.4686277988087L252.83265134796707,-174.13497418791317L255.83321805501762,-169.69591439596198L258.7558554855366,-165.20516358460458L261.59967337585044,-160.66408968004092L264.36380547148104,-156.07407593737275L267.0474097910153,-151.43652051925056L269.64966888258095,-146.75283606997968L272.1697900728499,-142.0244492852152L273.01439279162696,-140.37086250479007L202.58693823692914,-18.38693296830519L177.63340763314127,-18.37440096980654L177.28567569100534,-21.47173288639367L176.88394081464904,-24.562524305142254L176.42832537640734,-27.64583374104498L175.91896816115644,-30.720721988178976L175.35602432403837,-33.78625240579706L174.73966534319922,-36.84149120363756L174.0700789675554,-39.885507726365894L173.56423267543192,-42.00789614220778Z"
       id="path63" />
    <path
       d="M291.03706062644994,-97.69727510311318L292.6972062019745,-92.6049907112283L294.2688069357724,-87.48261591690645L295.7507705403317,-82.33359307031319L297.1426455951824,-77.15949061368728L298.4440081216993,-71.96188462875968L299.6544617122504,-66.74235835666373L300.77363765094594,-61.502501715664586L301.80119502595335,-56.24391081685475L302.73682083334205,-50.96818747796309L303.5802300724275,-45.676938735425736L303.59660203390655,-45.561275161065666L287.93223438415396,-18.429794523255705L245.25958631054155,-18.408363745780445Z"
       id="path65" />
  </g>
  <g
     fill="none"
     stroke="blue"
     stroke-width="0.5"
     id="g81">
    <path
       d="M179.50198438543083,347.8074915927682L203.61395355980065,389.58000898039813L187.63828632841415,433.4727939593535L182.74582560662878,435.57582153227673L175.11614626060467,438.6988356481023L167.43312484004133,441.68821784881845L159.69910166769063,444.54305753964803L151.916432601932,447.2624851087657L144.0874883191553,449.84567219219025L142.14325263268768,450.4497635028924Z"
       id="path69" />
    <path
       d="M98.65002604840667,461.926813209631L96.27648516016599,462.4426142618893L88.19108532713204,464.0524383612144L80.07882163518123,465.5209075924378L71.94216515841937,466.84757464560624L63.78359440123086,468.0320354050836L56.78757560135378,468.92334230315015L108.69757182253073,326.3017998414916L112.39816976295923,325.05825958670823L118.05409983939482,323.0471330978082L123.67406949340358,320.9376033227387L129.25636682778705,318.73031284470477L134.79929142070023,316.4259340257684L140.3011548436166,314.025168802041L145.7602811756398,311.5287484698663L151.17500751400536,308.937433463061L155.03386979147035,307.0134757035055Z"
       id="path71" />
    <path
       d="M16.328701366870128,472.0635774461513L14.511511776387861,472.13530804858254L6.269404313400303,472.31666035586903L-1.9746128708741995,472.3541404329768L-10.21802856893973,472.2477368631114L-18.458331756518895,471.99748205783095L-22.88605087703811,471.785615513L23.950464304424283,343.1033476459881L24.437026652746084,343.0729549526978L30.420753422697825,342.5942183586848L36.395213736464555,342.01112424697516L42.358587715558805,341.3238502336837L48.309058858498034,340.53260566913264L54.24481459412862,339.63763157408135L60.1640468337525,338.63920056630894L65.23580974257396,337.69240153308505Z"
       id="path73" />
    <path
       d="M-60.96844194134118,468.3965168082161L-67.69438654953655,467.4824094122132L-75.84276937792245,466.22977962937273L-83.96804976405043,464.8351317391879L-92.06775266880354,463.29889056491623L-97.98167203687575,462.06992248397864L-53.46465675870621,339.7604282256914L-53.363915690680045,339.7771522538865L-47.42585914860883,340.65673129356935L-41.47335623041633,341.4325429928843L-35.508220126154626,342.1043510320723L-29.532267874066637,342.67195077189666L-23.54731980709871,343.1351693159782L-17.555198998409526,343.49386556346104L-15.538686314634704,343.5792890524984Z"
       id="path75" />
    <path
       d="M-133.9768126279561,452.94615023526956L-139.99131695083543,451.1371900636623L-147.8434251951657,448.625294323367L-155.6504988999901,445.97674297248994L-163.41015995502937,443.1923427854298L-168.97560979794392,441.08494693508646L-125.04688686375927,320.3917726079357L-122.84142832494867,321.2572243213984L-117.21600733064832,323.3521738245534L-111.55488120501813,325.3486271231786L-105.8597743819165,327.2459760782591L-100.13242164605144,329.04364273892327L-94.37456760454847,330.7410795184918L-89.9428783446749,331.9639101022056Z"
       id="path77" />
    <path
       d="M-202.98545783980393,426.506628236383L-208.84119652426048,423.6834758572505L-216.20368521990645,419.9741653691305L-220.01335681628933,417.9909758626307L-165.53322786750462,323.6074720792689Z"
       id="path79" />
  </g>
  <g
     fill="none"
     stroke="blue"
     stroke-width="0.5"
     id="g95">
    <path
       d="M-461.17180640971526,102.12431037306251L-462.44261426188837,96.27648516017054L-464.0524383612135,88.19108532713672L-465.52090759243697,80.07882163518602L-466.8475746456055,71.94216515842427L-468.0320354050829,63.78359440123588L-469.0739290726479,55.605594543307305L-469.2233317129416,54.243711542596465L-439.19316136349477,18.455148142427003L-390.96111553859527,18.45046728888355Z"
       id="path83" />
    <path
       d="M-434.4881897659447,185.27608044734086L-435.57582153227537,182.74582560663202L-438.698835648101,175.116146260608L-441.6882178488172,167.4331248400448L-444.5430575396467,159.6991016676942L-447.26248510876445,151.91643260193572L-449.36849008137483,145.5336987706862L-343.39743798387843,19.242316722506587L-343.0729549526978,24.437026652746034L-342.5942183586849,30.420753422697697L-342.01112424697516,36.39521373646434L-341.32385023368374,42.35858771555852L-340.5326056691327,48.309058858497686L-339.6376315740814,54.24481459412818L-338.63920056630906,60.164046833751996L-337.5376167775726,66.06495252188805L-336.93346239381583,69.01488362705756Z"
       id="path85" />
    <path
       d="M-397.1465123194419,255.72606826987553L-397.22496647681686,255.60645353288305L-401.62541490546863,248.63499186996265L-405.90352434210735,241.58779357993745L-410.0579916331557,234.46700530767433L-414.08755128763175,227.27479611426156L-416.98241921492973,221.88954853848813L-325.0725528385957,112.35563508963824L-325.05825958670863,112.39816976295808L-323.0471330978086,118.05409983939361L-320.9376033227392,123.67406949340231L-318.7303128447053,129.2563668277857L-316.425934025769,134.79929142069884L-314.0251688020416,140.30115484361517L-311.528748469867,145.76028117563828L-309.1118833083544,150.81048287321343Z"
       id="path87" />
    <path
       d="M-351.1748070826167,315.89118946910565L-352.34880916319986,314.5991890667253L-357.78565764535676,308.40193946122605L-363.1135211502474,302.1107476374103L-368.330776759036,295.72752995325175L-373.4358352451234,289.25423079869245L-375.1552534725196,286.9939395698359L-289.77811092782827,185.24542321677202L-288.2110617767093,187.69817410178678L-284.8913810140587,192.69956335058265L-281.48491957694654,197.64225444565935L-277.9927151065255,202.52474179542844L-274.41583136210716,207.34553814694536L-270.75535789713007,212.10317503894137L-267.5054831206352,216.17797204748516Z"
       id="path89" />
    <path
       d="M-297.50482566292186,366.88186237061825L-298.7966547893307,365.84544847089694L-305.1360300714965,360.5750077755985L-311.38245796298344,355.1947324399632L-317.53403574134524,349.706261347978L-323.5888895763989,344.1112663411056L-325.2734751443752,342.4992171151804L-242.52115360259458,243.87884062225203L-238.60132877257905,247.7208642798633L-234.2416634281082,251.84730255858545L-229.81064580380726,255.89702570924865L-225.30962563056872,259.8688001469506L-220.73997396273978,263.7614160307223L-216.10308276048568,267.5736876320568L-214.9457685808408,268.4918094918576Z"
       id="path91" />
    <path
       d="M-197.48567774135842,305.15971654333265L-251.98412524154145,399.53264410611223L-258.918552928657,395.0740639797763L-265.7741115163501,390.4951404663839L-267.87066487984976,389.04127783032703Z"
       id="path93" />
  </g>
  <g
     fill="none"
     stroke="blue"
     stroke-width="0.5"
     id="g111">
    <path
       d="M245.25958631054127,18.408363745780314L287.93223438415356,18.429794523255417L303.59430715637137,45.55730031657786L302.8369063490329,50.37010001990203L301.9117033635385,55.64766118350883L300.8945351485152,60.908271530448125L299.7857115432549,66.15032862784757L298.5855703061691,71.37223569433436L297.29447701190463,76.57240208643029L295.91282493998614,81.74924378307719L294.44103495501895,86.90118386814503L292.8795553784902,92.02665301077599L291.2288618522051,97.12408994341764L291.0339691795267,97.69192055997341Z"
       id="path97" />
    <path
       d="M202.58693823692894,18.386932968305217L273.0157189551986,140.37315948747568L272.44979624339726,141.48656243615213L269.93901982673935,146.21991792518241L267.3460173696842,150.9087334107485L264.6715787258992,155.55158063423198L261.9165185553032,160.14704533939226L259.0816760759129,164.69372770316292L256.1679148082094,169.1902427620512L253.17612231210097,173.6352208340115L251.1956901626454,176.4695247756851L173.56344610048757,42.00653375444048L173.93780637713542,40.45844326059907L174.61741200234124,37.41664795202235L175.2438274722943,34.36345517001624L175.8168619747742,31.29979494667908L176.33634095792044,28.226600502593236L176.80210618340237,25.14480796255709L177.2140157746204,22.055356070432317L177.57194425992276,18.95918590319346L177.63340763314127,18.374400969806665Z"
       id="path99" />
    <path
       d="M226.37386344284428,207.3666235398466L222.89657124143963,211.10295438926875L219.17836845390295,214.96088394159764L215.39340181210665,218.75333432630515L211.54282425355564,222.4791503262657L207.6278087014757,226.13719702183292L203.64954770752948,229.7263601365471L199.6092530885541,233.24554637655447L198.96670272809817,233.78579247022802L132.87327675412598,119.3086206370156L134.58387886241675,117.38153887518811L136.6119714104779,115.01484854445418L138.59845062865753,112.61312357667973L140.54271141614237,110.17709556055603L142.44416153226197,107.70750653381508L144.30222177689132,105.20510875719788L146.1163261668804,102.67066448530848L147.88592210845843,100.10494573442378L149.61047056555913,97.50873404732998L151.2894462240164,94.88282025525709L152.92233765158002,92.22800423698388L154.50864745370302,89.54509467518737L156.04789242505277,86.83490881011L156.40577826246044,86.17834509911475Z"
       id="path101" />
    <path
       d="M169.21588452986177,256.1456275636654L165.20516358459992,258.75585548553954L160.6640896800362,261.59967337585334L156.07407593736792,264.3638054714839L151.4365205192456,267.04740979101814L146.7528360699746,269.6496688825837L142.02444928521,272.1697900728526L137.25280047737147,274.60700570849735L137.22276900865424,274.6216897680411L72.81220755634396,163.05932478860225L75.20511812551808,161.97356675114565L78.02049254080083,160.63638710470244L80.81210115825417,159.2502760586275L83.5790936268503,157.81565583577301L86.32062709387883,156.3329634353564L89.03586646168789,154.80265049984592L91.72398464206289,153.22518317738627L94.38416280816574,151.60104197980507L97.01559064395731,149.9307216362446L99.6174665910276,148.2147309424622L102.1889980927582,146.45359260584638L104.72940183574268,144.64784308619502L104.80880355798305,144.5892909531688Z"
       id="path103" />
    <path
       d="M102.98323246855804,289.20683663251094L102.76356343566104,289.28703540441063L97.69915712828869,291.036447063748L92.60499071122207,292.6972062019765L87.48261591690013,294.26880693577425L82.33359307030676,295.75077054033346L77.15949061368077,297.1426455951841L71.96188462875307,298.4440081217009L66.74235835665701,299.6544617122519L66.39743150453234,299.7281343067436L-3.5681180037471942,178.5442477789278L-3.4106257837747584,178.54863133086184L-0.29400304614129436,178.58096113687432L2.822709247668096,178.55889345217193L5.938561716896448,178.48243499878518L9.052605242697695,178.3516090666996L12.163891257247458,178.1664555067615L15.271472032686006,177.9270307185388L18.374400969805325,177.63340763314142L21.47173288639242,177.2856756910055L24.562524305140975,176.8839408146492L27.64583374104367,176.42832537640754L30.72072198817764,175.9189681611567L33.78625240579569,175.35602432403863L36.84149120363616,174.73966534319953L36.88948514708231,174.72910820909556Z"
       id="path105" />
    <path
       d="M27.22872849834702,305.77571441298244L24.38898566009119,306.0269860674704L19.044363757818054,306.4060231655503L13.693940757857392,306.69172602075224L8.339346450885705,306.88400760521876L2.9822118982000134,306.9828093481166L-2.3758310651192045,306.9881011534777L-7.7331503272807955,306.89988140936697L-13.088113996939986,306.7181769883731L-14.942463515533001,306.62283100872685L-85.36991807023077,184.63890147224208L-72.90400579739689,163.02224405600015L-70.04777170261217,164.2697653186967L-67.17020037799881,165.4672484195602L-64.27216835965798,166.6143285936379L-61.35455841621633,167.71065642919672L-58.41825927992614,168.7558979741576L-55.4641653759489,169.74973483782045L-52.49317654990471,170.6918642878491L-50.40221111902558,171.3149827563814Z"
       id="path107" />
    <path
       d="M-60.91020819341253,300.8941254968133L-66.15032862784817,299.78571154325476L-71.37223569433496,298.5855703061689L-76.57240208643088,297.29447701190446L-81.74924378307776,295.91282493998597L-86.90118386814562,294.4410349550188L-92.02665301077656,292.87955537849L-97.12408994341821,291.22886185220494L-102.19194193740091,289.48945719340236L-107.22866527591391,287.66187124159137L-112.23272572423647,285.746660697157L-112.34107929865822,285.7030074445291L-128.00544694841034,258.5715268067201L-106.68768250932058,221.60521413948118Z"
       id="path109" />
  </g>
  <g
     fill="none"
     stroke="blue"
     stroke-width="0.5"
     id="g125">
    <path
       d="M-390.9611155385951,-18.45046728888355L-439.19316136349477,-18.45514814242702L-469.2175945824244,-54.23687429669132L-468.592639524543,-59.52538335523675L-467.4824094122133,-67.6943865495358L-466.2297796293729,-75.8427693779216L-464.83513173918806,-83.9680497640495L-463.2988905649164,-92.06775266880248L-461.6215240605016,-100.13941084421222L-461.172564638541,-102.12521399498969Z"
       id="path113" />
    <path
       d="M-449.36536795293233,-145.52997796289833L-448.62529432336754,-147.84342519516397L-445.97674297249057,-155.65049889998832L-443.19234278543047,-163.41015995502747L-440.27294191745733,-171.12004469235455L-437.2194296463564,-178.77780460639127L-434.493314662711,-185.2821880614738L-336.9344338745825,-69.0160413927512L-337.7077953935248,-65.18945943975893L-338.79407380213144,-59.28571706708732L-339.777152253886,-53.36391569068343L-340.65673129356884,-47.4258591486123L-341.4325429928839,-41.473356230419874L-342.1043510320719,-35.50822012615826L-342.6719507718964,-29.53226787407035L-343.1351693159779,-23.547319807102504L-343.39840415912767,-19.24346816533089Z"
       id="path115" />
    <path
       d="M-416.98340095316547,-221.89071852855756L-416.13692668185917,-223.50031617862012L-412.1729286555104,-230.7288667759318L-408.08337876228444,-237.88713512530282L-403.86952271869495,-244.97294074885025L-399.5326441061135,-251.9841252415394L-397.1353027358165,-255.71270920831842L-309.1114473371208,-150.80996330292953L-309.3284076668026,-150.3733916021155L-311.9056729996421,-144.9519639130259L-314.3879288429877,-139.48638245154723L-316.77441907766354,-133.97831208673884L-319.06441675562564,-128.42943063019183L-321.25722432139753,-122.84142832495101L-323.35217382455255,-117.21600733065077L-325.0681032639145,-112.35033229302634Z"
       id="path117" />
    <path
       d="M-375.1590616293892,-286.99847795446635L-371.00444909856816,-292.36626315160606L-365.8454484708984,-298.7966547893289L-360.5750077756001,-305.13603007149464L-355.1947324399648,-311.38245796298156L-351.1734551773939,-315.8895783311994L-267.50883366477507,-216.18196507050104L-267.5736876320579,-216.10308276048428L-271.30445369609515,-211.4003644657837L-274.95257779535126,-206.63325157218554L-278.51694867588554,-201.80319618845726L-281.9964805957988,-196.91166959625846L-285.39011365596144,-191.96016180197455L-288.69681412286826,-186.95018108284586L-289.7790493763421,-185.2465416161598Z"
       id="path119" />
    <path
       d="M-325.27446633612743,-342.50039837151206L-320.70060871164577,-346.80463182049067L-314.5991890667271,-352.34880916319827L-308.401939461228,-357.7856576453552L-302.11074763741226,-363.11352115024584L-297.5029643737248,-366.8796441725308L-214.9439708101197,-268.48966699214213L-216.7962032491324,-267.0124097272703L-221.4231932356603,-263.1881269908015L-225.982735572554,-259.2836746012906L-230.47344137904838,-255.3002418927588L-234.8939427426523,-251.23904225739756L-239.24289313582815,-247.10131277595738L-242.5177401157859,-243.8747725870844Z"
       id="path121" />
    <path
       d="M-267.87284601525084,-389.0438772062771L-262.500054993944,-392.70351947537034L-255.6064535328851,-397.22496647681555L-251.98412524154145,-399.53264410611223L-197.48567774135842,-305.1597165433326Z"
       id="path123" />
  </g>
  <g
     fill="none"
     stroke="blue"
     stroke-width="0.5"
     id="g139">
    <path
       d="M142.14365607781906,-450.4486550465039L147.84342519516545,-448.62529432336703L155.65049889998988,-445.97674297249L163.41015995502912,-443.1923427854299L171.1200446923563,-440.27294191745665L178.77780460639306,-437.21942964635565L186.38110706928728,-434.0327361015446L187.63523366502707,-433.4811810830787L203.6139535598006,-389.58000898039813L179.50198438543077,-347.8074915927683Z"
       id="path127" />
    <path
       d="M56.79030250196577,-468.91585020529345L59.525383355237146,-468.59263952454296L67.69438654953629,-467.48240941221326L75.84276937792221,-466.2297796293728L83.96804976405019,-464.83513173918794L92.06775266880328,-463.2988905649163L98.64836479856122,-461.93137745606947L155.03438388258286,-307.01206324978244L150.3733916021135,-309.32840766680357L144.95196391302383,-311.905672999643L139.48638245154504,-314.3879288429887L133.97831208673657,-316.7744190776645L128.42943063018947,-319.06441675562655L122.84142832494857,-321.25722432139844L117.21600733064824,-323.35217382455346L111.55488120501802,-325.34862712317863L108.69808873664957,-326.30037963162215Z"
       id="path129" />
    <path
       d="M-22.892015371904723,-471.8020028279643L-22.749198892312414,-471.8101387527871L-14.511511776388117,-472.13530804858254L-6.2694043134005595,-472.31666035586903L1.9746128708739425,-472.3541404329768L10.218028568939472,-472.2477368631114L16.32922373887396,-472.06214224086636L65.23344217333685,-337.69890637610297L65.18945943975562,-337.7077953935255L59.28571706708391,-338.79407380213206L53.36391569067993,-339.7771522538865L47.425859148608716,-340.6567312935694L41.473356230416215,-341.4325429928843L35.508220126154505,-342.1043510320723L29.532267874066527,-342.6719507718967L23.95023232897659,-343.1039849932926Z"
       id="path131" />
    <path
       d="M-97.98239137062026,-462.0718988371987L-96.27648516016625,-462.4426142618892L-88.1910853271323,-464.05243836121434L-80.07882163518148,-465.52090759243777L-71.94216515841963,-466.84757464560624L-63.78359440123112,-468.0320354050836L-60.96641566339347,-468.39094965530916L-15.53818697661023,-343.57791713255136L-18.44585612774924,-343.4471882012097L-24.437026652746194,-343.0729549526978L-30.420753422697935,-342.5942183586848L-36.39521373646466,-342.01112424697516L-42.35858771555891,-341.32385023368363L-48.30905885849815,-340.53260566913264L-53.46287397140655,-339.7555300578418Z"
       id="path133" />
    <path
       d="M-168.97660016923982,-441.08766795785886L-167.4331248400416,-441.6882178488184L-159.69910166769088,-444.5430575396479L-151.91643260193226,-447.2624851087656L-144.08748831915557,-449.84567219219014L-136.21465359163003,-452.2918319261121L-133.9762852258403,-452.9447012098653L-89.94469462306934,-331.9689002860817L-95.23189712751221,-330.4952442337072L-100.9853301762696,-328.7828824327578L-106.70800211518842,-326.97037018082807L-112.39816976295931,-325.0582595867082L-118.05409983939491,-323.04713309780817L-123.67406949340368,-320.93760332273865L-125.04784343757991,-320.394400772908Z"
       id="path135" />
    <path
       d="M-165.53322786750468,-323.607472079269L-220.01335681628933,-417.9909758626307L-212.6848993185163,-421.76707633721105L-205.29165594008592,-425.41470247458955L-202.98429728189794,-426.50343962974216Z"
       id="path137" />
  </g>
</svg>
