<?xml version="1.0" encoding="UTF-8" standalone="no"?>
<svg
   id="tb"
   width="4.25in"
   height="4.25in"
   viewBox="0,0,306,306"
   version="1.1"
   sodipodi:docname="342mm.svg"
   inkscape:version="1.1.2 (b8e25be8, 2022-02-05)"
   xmlns:inkscape="http://www.inkscape.org/namespaces/inkscape"
   xmlns:sodipodi="http://sodipodi.sourceforge.net/DTD/sodipodi-0.dtd"
   xmlns="http://www.w3.org/2000/svg"
   xmlns:svg="http://www.w3.org/2000/svg">
  <defs
     id="defs178" />
  <sodipodi:namedview
     id="namedview176"
     pagecolor="#ffffff"
     bordercolor="#666666"
     borderopacity="1.0"
     inkscape:pageshadow="2"
     inkscape:pageopacity="0.0"
     inkscape:pagecheckerboard="0"
     inkscape:document-units="in"
     showgrid="false"
     inkscape:zoom="1.7622549"
     inkscape:cx="204"
     inkscape:cy="210.80946"
     inkscape:window-width="1312"
     inkscape:window-height="969"
     inkscape:window-x="0"
     inkscape:window-y="0"
     inkscape:window-maximized="0"
     inkscape:current-layer="tb" />
  <g
     fill="none"
     stroke="blue"
     stroke-width="0.5"
     id="g75">
    <path
       d="M-1.61556759841814,101.792125984252L-1.61556759841814,105.02362204724412L-25.623602472334092,105.02362204724413L-25.890070996102782,104.96035515022145L-27.71793859077199,104.49252513803106L-29.53736303283675,103.9928656904418L-31.34779010798685,103.46152900856173L-33.14866834259719,102.89867694269132L-34.93944917171202,102.3044809430223L-36.39791157796345,101.792125984252Z"
       id="path9" />
    <path
       d="M-1.6155675984181412,95.32913385826775L-1.6155675984181406,98.56062992125986L-44.40632277350494,98.56062992125986L-45.441777391743564,98.09187936278458L-47.14679573578089,97.28387112616568L-48.83745270911583,96.44622927999174L-50.51323332125655,95.5792089780835L-50.97658241082486,95.32913385826775Z"
       id="path11" />
    <path
       d="M-1.615567598418142,88.86614173228347L-1.6155675984181412,92.09763779527562L-56.6063547095816,92.0976377952756L-57.05745420523608,91.82275779490206L-58.65129216782548,90.81298286306993L-60.22726437865276,89.77554541693259L-61.55759171308522,88.86614173228348Z"
       id="path13" />
    <path
       d="M-1.6155675984181426,82.40314960629922L-1.6155675984181423,85.63464566929134L-65.97744464141662,85.63464566929134L-66.34297926637879,85.35561511409014L-67.82253579597251,84.18477040206196L-69.28143292415113,82.98828219345313L-69.97002540123484,82.40314960629921Z"
       id="path15" />
    <path
       d="M-1.615567598418143,75.94015748031497L-1.615567598418143,79.17165354330709L-73.61129125323167,79.17165354330709L-74.90163676351814,77.95329845227748L-76.25070152916084,76.63421197973324L-76.93617777459124,75.94015748031497Z"
       id="path17" />
    <path
       d="M-1.615567598418144,69.47716535433071L-1.6155675984181437,72.70866141732283L-80.00024746337661,72.70866141732284L-80.15692735765953,72.53853407688052L-81.4106910484486,71.12855483178265L-82.63965625410124,69.69690913984526L-82.82172677018706,69.47716535433071Z"
       id="path19" />
    <path
       d="M-1.6155675984181448,63.014173228346436L-1.6155675984181443,66.24566929133857L-85.426413109304,66.24566929133857L-86.17405586432237,65.27636651450896L-87.3001608173811,63.76247996042232L-87.83676007416629,63.014173228346436Z"
       id="path21" />
    <path
       d="M-1.6155675984181461,56.5511811023622L-1.6155675984181455,59.78267716535432L-90.06736671256323,59.782677165354315L-90.51758934221098,59.106158301134016L-91.53534777254018,57.51740638801427L-92.13079047437854,56.55118110236219Z"
       id="path23" />
    <path
       d="M-1.6155675984181466,50.08818897637794L-1.6155675984181461,53.31968503937007L-94.0378764750802,53.319685039370064L-94.4201302236206,52.6479908258462L-95.32458371445242,50.99211379331331L-95.79802291253343,50.08818897637794Z"
       id="path25" />
    <path
       d="M-1.6155675984181475,43.62519685039369L-1.6155675984181468,46.856692913385814L-97.41939645403139,46.856692913385814L-97.86266572165908,45.933327631412396L-98.6494078665015,44.21839274592068L-98.90910807028206,43.62519685039369Z"
       id="path27" />
    <path
       d="M-1.6155675984181481,37.16220472440944L-1.615567598418148,40.39370078740158L-100.27335733110924,40.39370078740157L-100.82842414942239,38.99488188196031L-101.49362201962882,37.22924413388722L-101.5175513438785,37.16220472440944Z"
       id="path29" />
    <path
       d="M-1.6155675984181492,30.699212598425195L-1.6155675984181486,33.93070866141732L-102.6412575982513,33.93070866141732L-102.73107673024754,33.66448875726249L-103.30295662996747,31.866456987731134L-103.65189747232263,30.699212598425195Z"
       id="path31" />
    <path
       d="M-1.6155675984181497,24.23622047244094L-1.6155675984181492,27.467716535433066L-104.55442133372134,27.467716535433063L-104.82914501668388,26.41632609798194L-105.27420748978827,24.58278191826279L-105.35195089351157,24.23622047244094Z"
       id="path33" />
    <path
       d="M-1.6155675984181501,17.77322834645669L-1.61556759841815,21.004724409448816L-106.0451441764076,21.004724409448812L-106.06800400349408,20.893789894574493L-106.41649624598776,19.039465753311834L-106.63165838289382,17.77322834645669Z"
       id="path35" />
    <path
       d="M-1.6155675984181517,11.310236220472433L-1.615567598418151,14.541732283464556L-107.11977841479407,14.541732283464555L-107.26710478289695,13.44396373614809L-107.48539700253,11.569847045332L-107.51105210995127,11.310236220472431Z"
       id="path37" />
    <path
       d="M-1.6155675984181517,4.847244094488177L-1.6155675984181517,8.078740157480304L-107.80200388828092,8.078740157480304L-107.82370164164128,7.8116127488620295L-107.94361101024924,5.9286399377816865L-107.99354391311941,4.847244094488178Z"
       id="path39" />
    <path
       d="M-1.6155675984181528,-1.6157480314960755L-1.6155675984181523,1.615748031496051L-108.09085208002047,1.6157480314960508L-108.1059590832578,0.27118284025662104L-108.09422681521343,-1.6155675984167888L-108.09422254330235,-1.6157480314960753Z"
       id="path41" />
    <path
       d="M-1.6155675984181534,-8.078740157480329L-1.615567598418153,-4.847244094488202L-107.99420680532151,-4.847244094488202L-107.97199623677226,-5.3870175505838995L-107.86153515899372,-7.270568243887315L-107.79997009639959,-8.078740157480329Z"
       id="path43" />
    <path
       d="M-1.6155675984181546,-14.541732283464581L-1.6155675984181541,-11.310236220472454L-107.51092306793842,-11.310236220472454L-107.33320253226658,-12.905640767172347L-107.12198087470097,-14.541732283464581Z"
       id="path45" />
    <path
       d="M-1.6155675984181554,-21.00472440944883L-1.6155675984181548,-17.773228346456712L-106.63130337182726,-17.77322834645671L-106.51067705803796,-18.50533982617465L-106.17149225411953,-20.361388999213602L-106.04228392932119,-21.004724409448833Z"
       id="path47" />
    <path
       d="M-1.615567598418156,-27.467716535433087L-1.6155675984181554,-24.236220472440962L-105.35302438293724,-24.23622047244096L-104.96035515022184,-25.89007099610117L-104.55656773473834,-27.467716535433087Z"
       id="path49" />
    <path
       d="M-1.6155675984181568,-33.930708661417334L-1.6155675984181566,-30.699212598425216L-103.65187802985199,-30.699212598425216L-103.46152900856224,-31.347790107985187L-102.89867694269186,-33.14866834259551L-102.63918944904172,-33.93070866141734Z"
       id="path51" />
    <path
       d="M-1.615567598418158,-40.3937007874016L-1.6155675984181572,-37.16220472440947L-101.51489838654643,-37.16220472440947L-101.02279062625165,-38.48853989862931L-100.33568672443593,-40.24576870901724L-100.27484555464815,-40.3937007874016Z"
       id="path53" />
    <path
       d="M-1.6155675984181586,-46.85669291338586L-1.615567598418158,-43.62519685039372L-98.91220665392653,-43.62519685039372L-98.87000786271298,-43.722917042106566L-98.09187936278539,-45.44177739174181L-97.42135086107955,-46.85669291338585Z"
       id="path55" />
    <path
       d="M-1.6155675984181586,-53.31968503937009L-1.6155675984181586,-50.08818897637797L-95.7991196713754,-50.08818897637797L-95.5792089780844,-50.513233321254845L-94.68307432322487,-52.17362711319325L-94.03845568849108,-53.31968503937009Z"
       id="path57" />
    <path
       d="M-1.6155675984181603,-59.78267716535435L-1.6155675984181597,-56.55118110236222L-92.1312581413837,-56.55118110236222L-91.82275779490308,-57.05745420523443L-90.81298286307099,-58.65129216782386L-90.06821010986383,-59.78267716535434Z"
       id="path59" />
    <path
       d="M-1.6155675984181606,-66.2456692913386L-1.6155675984181603,-63.01417322834647L-87.83856707428889,-63.01417322834646L-87.61895536573635,-63.32369690772136L-86.50045967889731,-64.84321402262012L-85.42989660346971,-66.2456692913386Z"
       id="path61" />
    <path
       d="M-1.6155675984181617,-72.70866141732284L-1.615567598418161,-69.47716535433072L-82.82195823977565,-69.47716535433072L-81.76651495016388,-70.71922625671527L-80.51984083432957,-72.13547782789057L-79.99725389170744,-72.70866141732283Z"
       id="path63" />
    <path
       d="M-1.6155675984181628,-79.1716535433071L-1.615567598418162,-75.940157480315L-76.93785526239404,-75.940157480315L-76.6342119797346,-76.25070152915946L-75.29178198384908,-77.57653959245927L-73.92641738180339,-78.87874709029839L-73.60837149546336,-79.1716535433071Z"
       id="path65" />
    <path
       d="M-1.6155675984181626,-85.63464566929136L-1.6155675984181628,-82.40314960629924L-69.97242037635742,-82.40314960629922L-69.69690913984672,-82.63965625409999L-68.24403309421623,-83.84344861990935L-66.77036925501045,-85.02170145905936L-65.97570024894881,-85.63464566929134Z"
       id="path67" />
    <path
       d="M-1.6155675984181637,-92.0976377952756L-1.6155675984181634,-88.8661417322835L-61.55408904776686,-88.8661417322835L-60.67690590586261,-89.47225837730349L-59.10615830113562,-90.51758934220993L-57.5174063880159,-91.53534777253915L-56.60497797775893,-92.09763779527562Z"
       id="path69" />
    <path
       d="M-1.6155675984181646,-98.56062992125987L-1.615567598418164,-95.32913385826775L-50.98342632524525,-95.32913385826775L-49.32070406894899,-96.20000041365394L-47.63427078034318,-97.04611366082005L-45.933327631414144,-97.86266572165825L-44.4119102743189,-98.56062992125989Z"
       id="path71" />
    <path
       d="M-1.6155675984181674,-105.02362204724415L-1.6155675984181652,-101.79212598425201L-36.39296771813033,-101.79212598425202L-35.45226599740499,-102.12790394937664L-33.66448875726433,-102.73107673024693L-31.866456987732978,-103.30295662996691L-30.058718386705856,-103.84336944837919L-28.241823608872807,-104.35215057050416L-26.416326097983806,-104.8291450166834L-25.615130200728064,-105.02362204724412Z"
       id="path73" />
  </g>
  <g
     fill="none"
     stroke="blue"
     stroke-width="0.5"
     id="g121">
    <path
       d="M1.6155723068004098,-105.31568207141865L1.6155675984181528,-108.09422681521342L3.5018259195507535,-108.0495679985488L5.38701755058531,-107.97199623677218L7.270568243888747,-107.86153515899362L8.378382971293922,-107.77714385327234Z"
       id="path77" />
    <path
       d="M1.6155839615208913,-98.4379137492307L1.6155781341606514,-101.87679791032468L15.607841900267768,-106.96956543118915L16.64365374736093,-106.81741767793218L18.505339826176208,-106.51067705803769L20.361388999215183,-106.17149225411923L21.97372052372551,-105.84766948299969Z"
       id="path79" />
    <path
       d="M1.615595616241373,-91.56014542704276L1.615589788881131,-94.99902958813674L27.706674985725115,-104.49540797949146L27.717938590772004,-104.49252513803106L29.53736303283677,-103.9928656904418L31.347790107986864,-103.46152900856173L32.94384111346282,-102.96269427981555Z"
       id="path81" />
    <path
       d="M1.6156072709618545,-84.68237710485481L1.615601443601614,-88.1212612659488L37.78224902943669,-101.28484446038838L38.48853989863103,-101.022790626251L40.245768709018975,-100.33568672443523L41.99073826838863,-99.61801960046958L42.29269311817874,-99.48762556993277Z"
       id="path83" />
    <path
       d="M1.6156189256823361,-77.80460878266688L1.6156130983220947,-81.24349294376081L46.51230964153364,-97.58455410237211L47.14679573578092,-97.28387112616566L48.83745270911588,-96.4462292799917L50.487504734998,-95.5925205097146Z"
       id="path85" />
    <path
       d="M1.6156305804028175,-70.92684046047896L1.6156247530425767,-74.36572462157292L54.23114340493192,-93.51620727133881L55.446235989367906,-92.80456262520276L57.05745420523622,-91.82275779490197L57.775980283249034,-91.36753609829573Z"
       id="path87" />
    <path
       d="M1.6156422351232993,-64.04907213829102L1.6156364077630585,-67.48795629938499L61.13861777445621,-89.15254977164308L61.78489078131588,-88.71076146998585L63.32369690772315,-87.61895536573506L64.33272517747453,-86.87622350931146Z"
       id="path89" />
    <path
       d="M1.6156538898437809,-57.17130381610308L1.61564806248354,-60.610187977197036L67.37005974995104,-84.54283660312089L67.82253579597278,-84.18477040206174L69.2814329241514,-82.98828219345289L70.26077502465618,-82.15608463677258Z"
       id="path91" />
    <path
       d="M1.6156655445642623,-50.29353549391514L1.6156597172040212,-53.73241965500912L73.0136693369583,-79.71916994245164L73.52975623372917,-79.2486395949623L74.90163676351848,-77.95329845227715L75.63638750160386,-77.23487500517227Z"
       id="path93" />
    <path
       d="M1.615677199284744,-43.415767171727204L1.6156713719245035,-46.85465133282119L78.13558544926106,-74.70562238557903L78.87874709030008,-73.9264173818016L80.1569273576599,-72.53853407688008L80.51706532776846,-72.13352389277998Z"
       id="path95" />
    <path
       d="M1.6156888540052254,-36.53799884953926L1.6156830266449842,-39.97688301063324L82.78588685585521,-69.52042111378626L83.84344861991097,-68.24403309421426L84.94432712732477,-66.86714284296302Z"
       id="path97" />
    <path
       d="M1.6157005087257073,-29.660230527351317L1.6156946813654665,-33.09911468844529L86.99387869994887,-64.174232326912L87.30016081738152,-63.76247996042174L88.39967329575964,-62.22917073725811L88.94194553773252,-61.444384388146716Z"
       id="path99" />
    <path
       d="M1.6157121634461886,-22.782462205163377L1.6157063360859476,-26.221346366257354L90.79144521734955,-58.67866093773256L91.5353477725406,-57.5174063880136L92.52522364921545,-55.91113411572441L92.54487129297692,-55.87796955516747Z"
       id="path101" />
    <path
       d="M1.6157238181666702,-15.904693882975446L1.6157179908064296,-19.34357804406941L94.196842114519,-53.04035148000543L94.42013022362104,-52.64799082584543L95.32458371445284,-50.99211379331251L95.75576682754485,-50.16886739092919Z"
       id="path103" />
    <path
       d="M1.615735472887152,-9.026925560787507L1.6157296455269108,-12.465809721881474L97.22373235122298,-47.264276864397374L97.86266572165948,-45.933327631411515L98.59991375696531,-44.326279650958554Z"
       id="path105" />
    <path
       d="M1.6157471276076334,-2.149157238599567L1.6157413002473926,-5.588041399693539L99.8802374749163,-41.35339309243812L100.13251296447356,-40.74864141125927L100.82842414942277,-38.99488188195931L101.07202799360005,-38.34828308464003Z"
       id="path107" />
    <path
       d="M102.17554977797319,-35.311045884936554L102.73107673024789,-33.66448875726141L103.18435910916071,-32.239336171459165L19.046661038184787,-1.6157184939470601L9.598442618520021,-1.6157345044230724Z"
       id="path109" />
    <path
       d="M104.10217428536063,-29.134507294074076L104.35215057050499,-28.241823608869776L104.82914501668418,-26.416326097980743L104.9308707709837,-25.99724186600225L37.9430978775143,-1.6156864729950353L28.494879457849557,-1.6157024834710476Z"
       id="path111" />
    <path
       d="M105.66814531774165,-22.826701573424604L105.68720241947739,-22.741749585031332L106.06800400349434,-20.89378989457322L106.30730869698452,-19.620451736222364L56.83953471684383,-1.615654452043011L47.39131629717907,-1.6156704625190235Z"
       id="path113" />
    <path
       d="M106.85400315762459,-16.38054596505392L107.01613796402746,-15.313985265374205L107.26710478289712,-13.44396373614672L107.30643146508616,-13.106330120029732L75.73597155617334,-1.6156224310909864L66.28775313650858,-1.6156384415669989Z"
       id="path115" />
    <path
       d="M107.66065445664053,-9.796370463168605L107.67094812900176,-9.692206067024859L107.82370164164138,-7.811612748860588L107.91051067694417,-6.4484244081257485L94.63240839550286,-1.6155904101389615L85.18418997583812,-1.615606420614974Z"
       id="path117" />
    <path
       d="M108.0587724179497,-3.0635009866526235L108.0847612289195,-2.157850674008374L108.09422681521342,-1.6155675984181357L104.08062681516755,-1.6155743996629492Z"
       id="path119" />
  </g>
  <g
     fill="none"
     stroke="blue"
     stroke-width="0.5"
     id="g167">
    <path
       d="M8.37955364037871,107.77756994197338L7.81161274886061,107.82370164164138L5.9286399377802415,107.94361101024931L4.043861205542799,108.03063970927029L2.1578506740083867,108.0847612289195L1.6155675984181528,108.09422681521342L1.6155723068004093,105.31568207141865Z"
       id="path123" />
    <path
       d="M21.969856875700415,105.84626323012284L20.893789894573263,106.06800400349432L19.039465753310576,106.41649624598799L17.179342006339983,106.73257299284536L15.611527035274156,106.97090671064076L1.6155781341606503,101.87679791032465L1.6155839615208913,98.43791374923073Z"
       id="path125" />
    <path
       d="M32.94030871918037,102.96140859344106L31.86645698773007,103.30295662996781L30.058718386702914,103.84336944838005L28.24182360886983,104.35215057050499L27.701196620345982,104.49341401756105L1.6155897888811317,94.99902958813672L1.615595616241373,91.5601454270428Z"
       id="path127" />
    <path
       d="M42.29368877566865,99.48798795962263L40.74864141125933,100.13251296447353L38.99488188195936,100.82842414942276L37.78283615194885,101.28505815550666L1.6156014436016133,88.12126126594879L1.615607270961854,84.68237710485482Z"
       id="path129" />
    <path
       d="M50.48340099279105,95.59102686970218L49.3207040689465,96.20000041365522L47.63427078034065,97.04611366082129L46.51250683510383,97.58462587496207L1.615613098322095,81.24349294376083L1.6156189256823361,77.80460878266689Z"
       id="path131" />
    <path
       d="M57.77813900531429,91.36832180887157L57.51740638801363,91.53534777254056L55.91113411572445,92.52522364921542L54.2878307703603,93.48691544645474L54.23432469069124,93.51736516466191L1.6156247530425765,74.3657246215729L1.615630580402817,70.92684046047896Z"
       id="path133" />
    <path
       d="M64.33250875045216,86.8761447363174L63.762479960421786,87.30016081738148L62.22917073725815,88.3996732957596L61.13925723837867,89.15278251747677L1.615636407763058,67.48795629938496L1.6156422351232986,64.049072138291Z"
       id="path135" />
    <path
       d="M70.26039313065641,82.15594563872403L69.69690913984483,82.6396562541016L68.24403309421429,83.84344861991093L67.36953414962032,84.5426453002454L1.6156480624835396,60.610187977197036L1.6156538898437802,57.17130381610308Z"
       id="path137" />
    <path
       d="M75.63736283045726,77.23522999584353L75.29178198384736,77.57653959246093L73.92641738180163,78.87874709030004L73.01380823140015,79.71922049589418L1.6156597172040212,53.732419655009096L1.615665544564262,50.29353549391514Z"
       id="path139" />
    <path
       d="M80.52046999235469,72.13476308934703L80.51984083432804,72.13547782789227L79.24863959496234,73.52975623372913L78.13766292467697,74.70637852479285L1.6156713719245028,46.854651332821156L1.6156771992847436,43.41576717172721Z"
       id="path141" />
    <path
       d="M84.9416035608721,66.86615154584318L84.18477040206177,67.82253579597274L82.98828219345292,69.28143292415137L82.78536346407344,69.52023061475684L1.6156830266449844,39.976883010633216L1.6156888540052252,36.53799884953925Z"
       id="path143" />
    <path
       d="M88.94321397482952,61.44484606149408L88.7107614699859,61.784890781315845L87.61895536573509,63.32369690772311L86.99309727496107,64.17394791147616L1.6156946813654658,33.0991146884453L1.6157005087257066,29.660230527351334Z"
       id="path145" />
    <path
       d="M92.54209836310893,55.876960291233836L91.82275779490199,57.05745420523618L90.81298286306985,58.65129216782561L90.79428583656112,58.67969483857246L1.6157063360859476,26.221346366257354L1.6157121634461884,22.78246220516339Z"
       id="path147" />
    <path
       d="M95.75712270750901,50.169360890877385L95.57920897808349,50.51323332125657L94.68307432322392,52.17362711319498L94.19578727099423,53.03996754836062L1.6157179908064292,19.343578044069417L1.6157238181666702,15.904693882975447Z"
       id="path149" />
    <path
       d="M98.59729667709496,44.32532711178507L98.0918793627846,45.44177739174352L97.28387112616569,47.14679573578087L97.22536947206171,47.26487272765259L1.6157296455269106,12.46580972188148L1.6157354728871514,9.026925560787504Z"
       id="path151" />
    <path
       d="M101.07449650464312,38.349181549182674L101.02279062625102,38.48853989863098L100.33568672443526,40.24576870901892L99.88015745741427,41.35336396844917L1.6157413002473922,5.588041399693541L1.615747127607633,2.1491572385995665Z"
       id="path153" />
    <path
       d="M9.598442618520043,1.6157345044230722L19.04666103818481,1.6157184939470597L103.18303326183731,32.238853602498274L102.89867694269134,33.148668342597155L102.30448094302231,34.93944917171198L102.17412227591223,35.31052631667701Z"
       id="path155" />
    <path
       d="M28.49487945784954,1.6157024834710474L37.94309787751431,1.615686472995035L104.93275041147697,25.997925999192926L104.49252513803107,27.717938590771954L104.10337948393676,29.13494595048218Z"
       id="path157" />
    <path
       d="M47.391316297179046,1.6156704625190232L56.83953471684381,1.615654452043011L106.30692105601871,19.620310646449237L106.17149225411923,20.361388999215137L105.79996658515383,22.211235895919742L105.6653619270616,22.82568850206674Z"
       id="path159" />
    <path
       d="M66.28775313650853,1.6156384415669984L75.73597155617328,1.6156224310909866L107.30725458411438,13.106629710855279L107.09162067763842,14.776897850383477L106.85596027453896,16.38125829735575Z"
       id="path161" />
    <path
       d="M85.18418997583805,1.615606420614974L94.63240839550281,1.6155904101389622L107.90976579184898,6.448153292123176L107.86153515899362,7.270568243888722L107.71821841272747,9.151904251673493L107.65788897934459,9.795363911749366Z"
       id="path163" />
    <path
       d="M104.08062681516755,1.615574399662949L108.09422681521342,1.6155675984181357L108.05993570059907,3.0639243869110273Z"
       id="path165" />
  </g>
</svg>
